<mxfile host="app.diagrams.net" modified="2021-02-05T09:41:39.637Z" agent="5.0 (Windows)" etag="87AuoGtsy3bHmgAH7fcU" version="13.10.0" type="github">
  <diagram id="VM11_sDk9xaW8if61wxr" name="Page-1">
    <mxGraphModel dx="1038" dy="547" grid="1" gridSize="10" guides="1" tooltips="1" connect="1" arrows="1" fold="1" page="1" pageScale="1" pageWidth="827" pageHeight="1169" math="0" shadow="0">
      <root>
        <mxCell id="0" />
        <mxCell id="1" parent="0" />
        <mxCell id="8Ayx5IA9gHQoe1knL8Jj-1" value="" style="verticalLabelPosition=bottom;html=1;verticalAlign=top;align=center;strokeColor=none;fillColor=#00BEF2;shape=mxgraph.azure.server;" vertex="1" parent="1">
          <mxGeometry x="380" y="260" width="110" height="33" as="geometry" />
        </mxCell>
        <mxCell id="8Ayx5IA9gHQoe1knL8Jj-2" value="" style="verticalLabelPosition=bottom;html=1;verticalAlign=top;align=center;strokeColor=none;fillColor=#00BEF2;shape=mxgraph.azure.server;" vertex="1" parent="1">
          <mxGeometry x="570" y="260" width="110" height="33" as="geometry" />
        </mxCell>
        <mxCell id="8Ayx5IA9gHQoe1knL8Jj-3" value="" style="verticalLabelPosition=bottom;html=1;verticalAlign=top;align=center;strokeColor=none;fillColor=#00BEF2;shape=mxgraph.azure.server;" vertex="1" parent="1">
          <mxGeometry x="10" y="170" width="110" height="33" as="geometry" />
        </mxCell>
        <mxCell id="8Ayx5IA9gHQoe1knL8Jj-4" value="" style="endArrow=none;html=1;entryX=0;entryY=0.5;entryDx=0;entryDy=0;entryPerimeter=0;exitX=1;exitY=0.5;exitDx=0;exitDy=0;exitPerimeter=0;" edge="1" parent="1" source="8Ayx5IA9gHQoe1knL8Jj-1" target="8Ayx5IA9gHQoe1knL8Jj-2">
          <mxGeometry width="50" height="50" relative="1" as="geometry">
            <mxPoint x="490" y="300" as="sourcePoint" />
            <mxPoint x="530" y="290" as="targetPoint" />
          </mxGeometry>
        </mxCell>
        <mxCell id="8Ayx5IA9gHQoe1knL8Jj-6" value="Internet" style="ellipse;shape=cloud;whiteSpace=wrap;html=1;" vertex="1" parent="1">
          <mxGeometry x="463" y="40" width="120" height="80" as="geometry" />
        </mxCell>
        <mxCell id="8Ayx5IA9gHQoe1knL8Jj-8" value="VMB Site to Site Link" style="ellipse;shape=cloud;whiteSpace=wrap;html=1;" vertex="1" parent="1">
          <mxGeometry x="260" y="140" width="170" height="80" as="geometry" />
        </mxCell>
        <mxCell id="8Ayx5IA9gHQoe1knL8Jj-9" value="" style="endArrow=none;html=1;exitX=0.875;exitY=0.5;exitDx=0;exitDy=0;exitPerimeter=0;" edge="1" parent="1" source="8Ayx5IA9gHQoe1knL8Jj-8">
          <mxGeometry width="50" height="50" relative="1" as="geometry">
            <mxPoint x="480" y="230" as="sourcePoint" />
            <mxPoint x="530" y="180" as="targetPoint" />
          </mxGeometry>
        </mxCell>
        <mxCell id="8Ayx5IA9gHQoe1knL8Jj-12" value="" style="endArrow=none;html=1;entryX=0.16;entryY=0.55;entryDx=0;entryDy=0;entryPerimeter=0;" edge="1" parent="1" source="8Ayx5IA9gHQoe1knL8Jj-3" target="8Ayx5IA9gHQoe1knL8Jj-8">
          <mxGeometry width="50" height="50" relative="1" as="geometry">
            <mxPoint x="225" y="240" as="sourcePoint" />
            <mxPoint x="225" y="180" as="targetPoint" />
          </mxGeometry>
        </mxCell>
        <mxCell id="8Ayx5IA9gHQoe1knL8Jj-13" value="" style="endArrow=none;html=1;entryX=0.55;entryY=0.95;entryDx=0;entryDy=0;entryPerimeter=0;" edge="1" parent="1" target="8Ayx5IA9gHQoe1knL8Jj-6">
          <mxGeometry width="50" height="50" relative="1" as="geometry">
            <mxPoint x="530" y="280" as="sourcePoint" />
            <mxPoint x="510" y="90" as="targetPoint" />
          </mxGeometry>
        </mxCell>
      </root>
    </mxGraphModel>
  </diagram>
</mxfile>
